<svg width="174" height="60" viewBox="0 0 174 60" fill="none" xmlns="http://www.w3.org/2000/svg">
<g clip-path="url(#clip0_40_524)">
<path d="M174 51.8805C174 56.3445 170.565 60 166.296 60H7.70443C3.43531 60 0 56.3445 0 51.8805V8.11951C0 3.62039 3.43531 0 7.70443 0H166.329C170.565 0 174.033 3.62039 174.033 8.11951V51.8805H174Z" fill="#263248"/>
<path d="M45.3594 39.6483C44.4255 41.7924 43.9919 42.7766 42.8246 44.6747C41.157 47.346 38.8223 50.6501 35.954 50.6501C33.3859 50.6852 32.7188 48.8926 29.2501 48.8926C25.7815 48.9278 25.0477 50.6501 22.4796 50.6501C19.5779 50.6149 17.3433 47.6624 15.709 44.991C11.073 37.5745 10.6061 28.8575 13.4411 24.2177C15.4756 20.9137 18.6774 19.0156 21.6791 19.0156C24.7476 19.0156 26.682 20.7731 29.2168 20.7731C31.6849 20.7731 33.1857 19.0156 36.7211 19.0156C39.3893 19.0156 42.2243 20.5622 44.2588 23.1984C37.6216 27.0297 38.6889 36.977 45.3594 39.6483Z" fill="white"/>
<path d="M34.0195 16.028C35.3203 14.2705 36.2875 11.8452 35.9206 9.31445C33.8194 9.45505 31.3513 10.861 29.9172 12.7239C28.6164 14.376 27.5491 16.8716 27.9494 19.2617C30.2507 19.332 32.6187 17.8909 34.0195 16.028Z" fill="white"/>
<path d="M59.4675 24.1123L52.8304 44.6747H55.8655L57.8333 38.3478H64.2369L66.2714 44.6747H69.4066L62.7361 24.1123H59.4675ZM61.0351 27.4866C61.2686 28.4005 61.502 29.3496 61.8022 30.404L63.6032 35.8522H58.5337L60.3013 30.3689C60.5682 29.455 60.8016 28.506 61.0351 27.4866Z" fill="white"/>
<path d="M78.0115 29.4551C76.0104 29.4551 74.3761 30.2635 73.3088 31.8452L73.1754 29.8066H70.4739V30.0526C70.5406 31.318 70.5739 32.724 70.5739 34.7275V50.5799H73.5423V43.1985C74.4428 44.3584 75.9103 45.0263 77.578 45.0263C79.3123 45.0263 80.8799 44.3233 82.0472 43.0227C83.3479 41.5816 84.015 39.5078 84.015 37.0473C84.015 34.8681 83.4146 32.97 82.314 31.5992C81.2467 30.1932 79.7125 29.4551 78.0115 29.4551ZM77.2778 32.021C79.9126 32.021 81.08 34.5869 81.08 37.1528C81.08 40.4217 79.5791 42.4604 77.1444 42.4604C75.4768 42.4604 74.0759 41.2653 73.6757 39.5781C73.609 39.2969 73.5757 38.9806 73.5757 38.5588V36.0632C73.5757 35.8523 73.609 35.5711 73.6757 35.2899C73.6757 35.2196 73.7091 35.1141 73.7091 35.0438C74.1427 33.2512 75.6102 32.021 77.2778 32.021Z" fill="white"/>
<path d="M93.2203 29.4551C91.2191 29.4551 89.5848 30.2635 88.5176 31.8452L88.3841 29.8066H85.7159V30.0526C85.7826 31.318 85.816 32.724 85.816 34.7275V50.5799H88.7844V43.1985C89.6849 44.3584 91.1524 45.0263 92.82 45.0263C94.5544 45.0263 96.1219 44.3233 97.2893 43.0227C98.59 41.5816 99.2571 39.5078 99.2571 37.0473C99.2571 34.8681 98.6567 32.97 97.5561 31.5992C96.4555 30.1932 94.9212 29.4551 93.2203 29.4551ZM92.4865 32.021C95.1213 32.021 96.2887 34.5869 96.2887 37.1528C96.2887 40.4217 94.7878 42.4604 92.3531 42.4604C90.7188 42.4604 89.2847 41.2653 88.8844 39.5781C88.8177 39.2969 88.7844 38.9806 88.7844 38.5588V36.0632C88.7844 35.8523 88.8177 35.5711 88.8844 35.2899C88.8844 35.2196 88.9178 35.1141 88.9178 35.0438C89.3514 33.2512 90.8189 32.021 92.4865 32.021Z" fill="white"/>
<path d="M112.265 32.8293C109.496 31.7045 108.629 30.8258 108.629 29.1737C108.629 27.8029 109.663 26.3969 111.998 26.3969C113.899 26.3969 115.133 27.0999 115.466 27.3108L115.733 27.4866L116.567 24.8855L116.4 24.7801C115.9 24.4637 114.499 23.7607 112.098 23.7607C108.329 23.7607 105.694 26.1158 105.694 29.4549C105.694 32.1614 107.328 34.0595 110.864 35.3952C113.365 36.3794 114.299 37.3987 114.299 39.121C114.299 41.0894 112.865 42.2845 110.53 42.2845C109.029 42.2845 107.462 41.8275 106.261 41.0191L105.994 40.8433L105.194 43.5147L105.327 43.6201C106.428 44.3934 108.529 44.9558 110.33 44.9558C115.4 44.9558 117.201 41.6869 117.201 38.9101C117.234 36.063 115.8 34.3056 112.265 32.8293Z" fill="white"/>
<path d="M122.537 26.2212L119.635 27.1702V29.7713H117.501V32.2669H119.635V39.8943C119.635 41.7221 119.969 43.0226 120.669 43.831C121.336 44.6043 122.337 45.0261 123.538 45.0261C124.638 45.0261 125.439 44.7801 125.806 44.6395L125.972 44.5692L125.839 42.0736L125.572 42.179C125.205 42.2845 124.805 42.3548 124.205 42.3548C123.071 42.3548 122.57 41.5815 122.57 39.7889V32.2669H126.139V29.7713H122.57V26.2212H122.537Z" fill="white"/>
<path d="M133.443 29.4551C129.308 29.4551 126.439 32.6888 126.439 37.3637C126.439 41.8628 129.241 45.0263 133.243 45.0263H133.277C136.645 45.0263 140.281 42.5307 140.281 37.0825C140.281 34.8681 139.647 32.97 138.413 31.564C137.112 30.1932 135.411 29.4551 133.443 29.4551ZM133.343 31.8804C136.011 31.8804 137.212 34.622 137.212 37.1528C137.212 40.2811 135.578 42.5307 133.277 42.5307H133.243C131.009 42.5307 129.374 40.3162 129.374 37.2231C129.408 34.5869 130.608 31.8804 133.343 31.8804Z" fill="white"/>
<path d="M149.286 29.5957L149.119 29.5605C148.852 29.4902 148.652 29.4551 148.385 29.4551C146.851 29.4551 145.45 30.4041 144.683 31.9507L144.583 29.7714H141.948L141.982 30.0175C142.048 31.2477 142.082 32.6185 142.082 34.4814L142.048 44.6396H145.017V36.6958C145.017 36.2741 145.05 35.8523 145.083 35.5008C145.417 33.6027 146.651 32.3725 148.185 32.3725C148.485 32.3725 148.719 32.4076 148.986 32.4076L149.286 32.4428V29.5957Z" fill="white"/>
<path d="M155.923 29.4199C151.987 29.4199 149.252 32.724 149.252 37.4691C149.252 42.0386 151.987 44.9911 156.223 44.9911C158.458 44.9911 159.992 44.4639 160.892 44.0421L161.059 43.9718L160.492 41.6519L160.259 41.7574C159.458 42.1089 158.391 42.4603 156.557 42.4603C155.289 42.4603 152.321 42.0034 152.121 37.9612L161.66 37.9964L161.693 37.7855C161.76 37.4691 161.793 37.0473 161.793 36.4849C161.793 33.2161 160.259 29.4199 155.923 29.4199ZM155.723 31.7749C156.623 31.7749 157.357 32.0561 157.891 32.6537C158.725 33.5676 158.891 34.9032 158.891 35.5359H152.154C152.454 33.7433 153.522 31.7749 155.723 31.7749Z" fill="white"/>
<path d="M52.8304 10.0527C53.6642 9.94725 54.5981 9.8418 55.6653 9.8418C57.5664 9.8418 58.9339 10.2636 59.8344 11.0369C60.7683 11.8453 61.3019 12.9701 61.3019 14.5518C61.3019 16.1335 60.7683 17.4341 59.8344 18.3479C58.8672 19.2618 57.2663 19.7539 55.2985 19.7539C54.3312 19.7539 53.5641 19.7188 52.8637 19.6485V10.0527H52.8304ZM54.1978 18.6994C54.5314 18.7697 55.0317 18.7697 55.5319 18.7697C58.3669 18.7697 59.9011 17.2583 59.9011 14.6573C59.9011 12.3374 58.5337 10.8963 55.7321 10.8963C55.0317 10.8963 54.5314 10.9666 54.1645 11.0369V18.6994H54.1978Z" fill="white"/>
<path d="M66.038 19.8243C64.0702 19.8243 62.5026 18.4534 62.5026 16.239C62.5026 13.884 64.1369 12.5132 66.1714 12.5132C68.2726 12.5132 69.7068 13.9543 69.7068 16.0984C69.7068 18.6995 67.8057 19.8243 66.038 19.8243ZM66.0713 18.8752C67.3387 18.8752 68.306 17.7504 68.306 16.1336C68.306 14.9385 67.6723 13.4622 66.1047 13.4622C64.5371 13.4622 63.8367 14.833 63.8367 16.1687C63.8701 17.7153 64.7706 18.8752 66.0713 18.8752Z" fill="white"/>
<path d="M71.8413 12.689L72.8419 16.239C73.042 17.0123 73.2421 17.7505 73.3755 18.4886H73.4089C73.5757 17.7856 73.8091 17.0475 74.0759 16.2742L75.2766 12.7241H76.4106L77.5446 16.2039C77.8114 17.0123 78.0449 17.7856 78.2117 18.4886H78.245C78.3784 17.7856 78.5785 17.0475 78.812 16.2039L79.8459 12.689H81.18L78.812 19.6837H77.578L76.444 16.3445C76.1771 15.5361 75.977 14.8682 75.7769 14.0246H75.7436C75.5768 14.8682 75.3433 15.6064 75.0765 16.3445L73.8758 19.6485H72.6418L70.4072 12.6538H71.8413V12.689Z" fill="white"/>
<path d="M82.5141 14.5518C82.5141 13.8137 82.5141 13.2513 82.4474 12.6538H83.6481L83.7148 13.7786H83.7481C84.115 13.1459 84.9822 12.478 86.1829 12.478C87.2168 12.478 88.7844 13.0404 88.7844 15.4657V19.6485H87.4503V15.6415C87.4503 14.5167 87.0167 13.5677 85.7493 13.5677C84.8821 13.5677 84.1817 14.1652 83.9482 14.8682C83.8815 15.0439 83.8482 15.2548 83.8482 15.4657V19.6837H82.5141V14.5518Z" fill="white"/>
<path d="M90.9523 9.41992H92.2864V19.6835H90.9523V9.41992Z" fill="white"/>
<path d="M97.5227 19.8243C95.5549 19.8243 93.9874 18.4534 93.9874 16.239C93.9874 13.884 95.6216 12.5132 97.6561 12.5132C99.7573 12.5132 101.192 13.9543 101.192 16.0984C101.192 18.6995 99.2904 19.8243 97.5227 19.8243ZM97.5561 18.8752C98.8235 18.8752 99.7907 17.7504 99.7907 16.1336C99.7907 14.9385 99.157 13.4622 97.5894 13.4622C96.0219 13.4622 95.3215 14.833 95.3215 16.1687C95.3548 17.7153 96.2553 18.8752 97.5561 18.8752Z" fill="white"/>
<path d="M108.062 17.9965C108.062 18.594 108.095 19.1916 108.162 19.6837H106.962L106.828 18.8049H106.795C106.395 19.3673 105.594 19.8594 104.527 19.8594C103.026 19.8594 102.259 18.8752 102.259 17.8559C102.259 16.1687 103.826 15.2549 106.695 15.2549V15.1143C106.695 14.5519 106.528 13.4974 105.027 13.4974C104.327 13.4974 103.626 13.6731 103.093 14.0246L102.792 13.181C103.393 12.8295 104.293 12.5835 105.227 12.5835C107.495 12.5835 108.029 14.0246 108.029 15.4306V17.9965H108.062ZM106.761 16.0984C105.294 16.0633 103.626 16.3093 103.626 17.6802C103.626 18.5237 104.193 18.9104 104.86 18.9104C105.828 18.9104 106.461 18.348 106.661 17.7505C106.695 17.6099 106.728 17.4693 106.728 17.3287V16.0984H106.761Z" fill="white"/>
<path d="M116.567 9.41992V17.8558C116.567 18.4885 116.567 19.1915 116.634 19.6484H115.433L115.366 18.4182H115.333C114.933 19.1915 114.032 19.789 112.832 19.789C111.064 19.789 109.663 18.3479 109.663 16.2389C109.663 13.8839 111.197 12.4779 112.965 12.4779C114.099 12.4779 114.866 12.97 115.2 13.5324H115.233V9.41992H116.567ZM115.233 15.5359C115.233 15.3602 115.233 15.1493 115.166 14.9735C114.966 14.1651 114.232 13.5324 113.232 13.5324C111.831 13.5324 111.03 14.6923 111.03 16.2038C111.03 17.6449 111.764 18.8048 113.198 18.8048C114.099 18.8048 114.933 18.2424 115.166 17.2934C115.2 17.1176 115.233 16.9419 115.233 16.731V15.5359Z" fill="white"/>
<path d="M125.039 19.8243C123.071 19.8243 121.503 18.4534 121.503 16.239C121.503 13.884 123.137 12.5132 125.172 12.5132C127.273 12.5132 128.707 13.9543 128.707 16.0984C128.707 18.6995 126.806 19.8243 125.039 19.8243ZM125.072 18.8752C126.339 18.8752 127.307 17.7504 127.307 16.1336C127.307 14.9385 126.673 13.4622 125.105 13.4622C123.538 13.4622 122.837 14.833 122.837 16.1687C122.837 17.7153 123.771 18.8752 125.072 18.8752Z" fill="white"/>
<path d="M130.375 14.5518C130.375 13.8137 130.375 13.2513 130.308 12.6538H131.509L131.576 13.7786H131.609C131.976 13.1459 132.843 12.478 134.044 12.478C135.078 12.478 136.645 13.0404 136.645 15.4657V19.6485H135.311V15.6415C135.311 14.5167 134.878 13.5677 133.61 13.5677C132.743 13.5677 132.043 14.1652 131.809 14.8682C131.742 15.0439 131.709 15.2548 131.709 15.4657V19.6837H130.375V14.5518Z" fill="white"/>
<path d="M143.683 11.0015V12.6886H145.617V13.6728H143.683V17.4338C143.683 18.3125 143.949 18.8046 144.683 18.8046C145.05 18.8046 145.25 18.7695 145.45 18.7343L145.517 19.7185C145.25 19.7888 144.85 19.8943 144.316 19.8943C143.683 19.8943 143.182 19.6834 142.882 19.367C142.515 18.9804 142.348 18.3477 142.348 17.5393V13.6377H141.214V12.6535H142.348V11.353L143.683 11.0015Z" fill="white"/>
<path d="M147.118 9.41992H148.452V13.7784H148.485C148.685 13.427 149.019 13.0755 149.453 12.8997C149.853 12.6537 150.32 12.5482 150.82 12.5482C151.821 12.5482 153.388 13.1106 153.388 15.5359V19.6835H152.054V15.6414C152.054 14.5166 151.621 13.5675 150.353 13.5675C149.486 13.5675 148.819 14.1299 148.552 14.8329C148.485 15.0087 148.452 15.1844 148.452 15.4305V19.6484H147.118V9.41992Z" fill="white"/>
<path d="M156.323 16.3796C156.357 18.1019 157.491 18.8049 158.825 18.8049C159.792 18.8049 160.392 18.6292 160.859 18.4534L161.093 19.3322C160.626 19.5431 159.792 19.7891 158.624 19.7891C156.357 19.7891 154.989 18.348 154.989 16.2742C154.989 14.1652 156.323 12.478 158.458 12.478C160.859 12.478 161.493 14.4815 161.493 15.7821C161.493 16.0281 161.493 16.239 161.459 16.3796H156.323ZM160.225 15.4657C160.225 14.6573 159.859 13.3919 158.391 13.3919C157.024 13.3919 156.457 14.587 156.323 15.4657H160.225Z" fill="white"/>
</g>
<defs>
<clipPath id="clip0_40_524">
<rect width="174" height="60" fill="white"/>
</clipPath>
</defs>
</svg>
