<svg width="174" height="60" viewBox="0 0 174 60" fill="none" xmlns="http://www.w3.org/2000/svg">
<path d="M174 51.8948C174 56.3778 170.564 60 166.312 60H7.68798C3.43578 60 0 56.3778 0 51.8948V8.1052C0 3.62224 3.43578 0 7.68798 0H166.312C170.564 0 174 3.62224 174 8.1052V51.8948Z" fill="#263248"/>
<path d="M13.0627 11.5483V31.8831V52.1819L32.4868 31.8831L13.0627 11.5483Z" fill="url(#paint0_linear_40_555)"/>
<path d="M37.6915 26.3958L29.8674 21.6259L13.0627 11.4048V11.5482L32.4868 31.883L37.6915 26.3958Z" fill="url(#paint1_linear_40_555)"/>
<path d="M13.0627 52.1817V52.3251L29.8674 42.104L37.6915 37.3341L32.4868 31.8828L13.0627 52.1817Z" fill="url(#paint2_linear_40_555)"/>
<path d="M37.6915 26.396L32.4868 31.8831L37.6915 37.3344L46.6722 31.8831L37.6915 26.396Z" fill="url(#paint3_linear_40_555)"/>
<path d="M135.424 39.8091C134.71 39.8091 134.029 39.6657 133.417 39.3788C132.805 39.0918 132.294 38.6615 131.886 38.0518H131.75C131.818 38.7332 131.886 39.3787 131.886 40.0243V44.9018H130.185V27.7948H131.58L131.818 29.4086H131.886C132.328 28.7631 132.839 28.2969 133.417 28.01C133.995 27.723 134.676 27.5796 135.424 27.5796C136.921 27.5796 138.043 28.1175 138.86 29.1935C139.676 30.2694 140.084 31.7756 140.084 33.7123C140.084 35.6489 139.676 37.1552 138.86 38.2311C138.009 39.2712 136.853 39.8091 135.424 39.8091ZM135.152 29.0859C133.995 29.0859 133.179 29.4086 132.669 30.09C132.158 30.7715 131.886 31.8115 131.886 33.2819V33.6764C131.886 35.3262 132.158 36.5097 132.669 37.2269C133.179 37.9442 134.029 38.3028 135.186 38.3028C136.138 38.3028 136.921 37.8725 137.465 37.0476C138.009 36.2227 138.281 35.0751 138.281 33.6406C138.281 32.1701 138.009 31.0225 137.465 30.2335C136.921 29.4804 136.172 29.0859 135.152 29.0859Z" fill="#F9F9F9"/>
<path d="M143.996 39.5938H142.296V22.8096H143.996V39.5938Z" fill="#F9F9F9"/>
<path d="M153.759 39.5939L153.419 37.9083H153.351C152.807 38.6615 152.229 39.1636 151.684 39.4146C151.14 39.6657 150.426 39.8091 149.609 39.8091C148.487 39.8091 147.636 39.5222 146.99 38.9125C146.344 38.3028 146.037 37.4421 146.037 36.3303C146.037 33.9275 147.84 32.7081 151.48 32.5646L153.385 32.4929V31.7756C153.385 30.8432 153.181 30.1618 152.807 29.7314C152.433 29.301 151.82 29.0859 151.004 29.0859C150.086 29.0859 148.997 29.3728 147.84 29.9825L147.33 28.6196C147.874 28.2969 148.487 28.0458 149.133 27.8665C149.779 27.6872 150.46 27.5796 151.106 27.5796C152.433 27.5796 153.419 27.9024 154.066 28.512C154.712 29.1217 155.018 30.1259 155.018 31.5246V39.5939H153.759ZM149.915 38.3387C150.97 38.3387 151.786 38.0159 152.399 37.4062C153.011 36.7966 153.317 35.9358 153.317 34.8241V33.7481L151.616 33.8199C150.256 33.8557 149.303 34.1068 148.691 34.5013C148.079 34.8958 147.806 35.5055 147.806 36.3303C147.806 36.9759 147.976 37.478 148.351 37.8007C148.725 38.1594 149.235 38.3387 149.915 38.3387Z" fill="#F9F9F9"/>
<path d="M156.005 27.7944H157.808L160.257 34.5368C160.801 36.079 161.141 37.1907 161.243 37.8721H161.311C161.413 37.5135 161.584 36.868 161.856 36.0072C162.128 35.1106 163.08 32.385 164.645 27.8303H166.482L161.686 41.2433C161.209 42.5703 160.665 43.5027 160.019 44.0766C159.372 44.6504 158.59 44.9014 157.671 44.9014C157.161 44.9014 156.651 44.8297 156.141 44.7221V43.2876C156.515 43.3593 156.923 43.431 157.399 43.431C158.556 43.431 159.406 42.7496 159.883 41.3509L160.495 39.6653L156.005 27.7944Z" fill="#F9F9F9"/>
<path d="M103.958 28.8702C104.502 29.3365 105.625 30.3406 105.625 32.2056C105.625 34.0346 104.638 34.8953 103.652 35.7202C103.345 36.043 103.005 36.4016 103.005 36.9396C103.005 37.4775 103.345 37.7644 103.618 38.0155L104.468 38.6969C105.489 39.6293 106.441 40.4542 106.441 42.1757C106.441 44.5068 104.298 46.8379 100.284 46.8379C96.8821 46.8379 95.2493 45.1165 95.2493 43.2874C95.2493 42.3908 95.6575 41.1356 97.0522 40.2749C98.515 39.3424 100.488 39.199 101.543 39.1272C101.202 38.6969 100.828 38.2307 100.828 37.4417C100.828 37.0113 100.93 36.7602 101.066 36.4733C100.794 36.5092 100.556 36.5092 100.318 36.5092C97.8346 36.5092 96.4399 34.5726 96.4399 32.6359C96.4399 31.4883 96.9161 30.233 97.9367 29.3365C99.2633 28.1888 100.862 27.9736 102.121 27.9736H106.951L105.455 28.8702H103.958ZM102.291 39.8445C102.087 39.8087 101.985 39.8087 101.747 39.8087C101.543 39.8087 100.284 39.8445 99.2974 40.2032C98.7871 40.3825 97.2903 40.9922 97.2903 42.7495C97.2903 44.5068 98.9232 45.762 101.406 45.762C103.652 45.762 104.842 44.6144 104.842 43.1081C104.842 41.8529 104.094 41.1715 102.291 39.8445ZM102.971 35.1464C103.516 34.5726 103.55 33.7836 103.55 33.3532C103.55 31.56 102.529 28.7985 100.59 28.7985C99.9777 28.7985 99.3314 29.1213 98.9572 29.6234C98.549 30.1255 98.4469 30.8069 98.4469 31.4524C98.4469 33.1021 99.3654 35.8637 101.372 35.8637C101.985 35.8637 102.597 35.5409 102.971 35.1464Z" fill="#F9F9F9"/>
<path d="M89.1941 39.4501C85.4862 39.4501 83.4791 36.4016 83.4791 33.6401C83.4791 30.4124 85.9964 27.6509 89.5343 27.6509C92.97 27.6509 95.1131 30.4841 95.1131 33.4608C95.1472 36.3658 93.0041 39.4501 89.1941 39.4501ZM92.1196 37.4417C92.6979 36.6527 92.834 35.6485 92.834 34.716C92.834 32.5284 91.8475 28.404 88.956 28.404C88.1736 28.404 87.4252 28.7268 86.8469 29.2289C85.9284 30.0896 85.7583 31.1655 85.7583 32.2414C85.7583 34.6802 86.9149 38.6969 89.7384 38.6969C90.6568 38.7328 91.5753 38.2307 92.1196 37.4417Z" fill="#F9F9F9"/>
<path d="M76.5055 39.4501C72.7976 39.4501 70.7906 36.4016 70.7906 33.6401C70.7906 30.4124 73.3079 27.6509 76.8457 27.6509C80.2815 27.6509 82.4246 30.4841 82.4246 33.4608C82.4586 36.3658 80.3155 39.4501 76.5055 39.4501ZM79.4311 37.4417C80.0094 36.6527 80.1454 35.6485 80.1454 34.716C80.1454 32.5284 79.1589 28.404 76.2674 28.404C75.485 28.404 74.7366 28.7268 74.1583 29.2289C73.2399 30.0896 73.0698 31.1655 73.0698 32.2414C73.0698 34.6802 74.2264 38.6969 77.0498 38.6969C77.9683 38.7328 78.8868 38.2307 79.4311 37.4417Z" fill="#F9F9F9"/>
<path d="M69.0217 39.0555L65.6539 39.8804C64.2932 40.0956 63.0686 40.3108 61.7759 40.3108C55.2786 40.3108 52.7953 35.2899 52.7953 31.3449C52.7953 26.5391 56.2991 22.0562 62.2862 22.0562C63.5448 22.0562 64.7695 22.2713 65.8921 22.5941C67.661 23.1321 68.4774 23.7776 68.9877 24.1362L67.0487 26.1088L66.2322 26.3239L66.8105 25.3197C65.9941 24.4949 64.5654 22.9886 61.7759 22.9886C58.068 22.9886 55.2446 25.9653 55.2446 30.3048C55.2446 34.9671 58.4422 39.3425 63.5789 39.3425C65.0756 39.3425 65.858 39.0197 66.5724 38.7328V34.716L63.0346 34.9312L64.9056 33.8553H69.9061L69.2938 34.465C69.1237 34.6084 69.0897 34.6802 69.0557 34.8595C69.0217 35.0747 69.0217 35.792 69.0217 36.043V39.0555Z" fill="#F9F9F9"/>
<path d="M111.408 38.3382C110.625 38.2664 110.455 38.123 110.455 37.1546V36.8677V23.1319C110.455 23.0961 110.455 23.0243 110.455 22.9885C110.557 22.1277 110.795 21.9843 111.51 21.5181H108.176L106.407 22.4147H108.21V36.9036V37.7285C108.21 38.2306 108.108 38.3023 107.564 39.0554H111.714L112.598 38.5175C112.19 38.4457 111.816 38.4099 111.408 38.3382Z" fill="#F9F9F9"/>
<path d="M120.967 38.589C120.694 38.7325 120.456 38.9118 120.184 39.0194C119.402 39.378 118.619 39.4856 117.905 39.4856C117.157 39.4856 116 39.4498 114.809 38.5173C113.142 37.298 112.428 35.182 112.428 33.3171C112.428 29.5155 115.388 27.6147 117.769 27.6147C118.619 27.6147 119.47 27.8299 120.184 28.2962C121.341 29.121 121.647 30.1611 121.817 30.7349L116.34 33.1019L114.537 33.2454C115.115 36.3655 117.123 38.1945 119.368 38.1945C120.558 38.1945 121.409 37.7642 122.225 37.3338L120.967 38.589ZM118.789 31.237C119.232 31.0577 119.47 30.9142 119.47 30.5556C119.47 29.5872 118.415 28.4396 117.157 28.4396C116.204 28.4396 114.469 29.1928 114.469 31.8467C114.469 32.277 114.503 32.7074 114.537 33.1378L118.789 31.237Z" fill="#F9F9F9"/>
<path d="M123.246 27.8302V29.4441H123.042V27.8302H122.531V27.6509H123.722V27.8302H123.246Z" fill="#F9F9F9"/>
<path d="M125.321 29.4441V27.7943L124.845 29.4441H124.708L124.232 27.7943V29.4441H124.062V27.6509H124.368L124.811 29.0854L125.253 27.6509H125.559V29.4441H125.321Z" fill="#F9F9F9"/>
<path d="M57.4897 17.2143H56.3331C56.3331 17.035 56.2311 16.5687 55.993 15.7797H54.2921C54.054 16.5687 53.9519 17.035 53.9519 17.2143H52.8633C52.8633 17.1067 53.1355 16.2818 53.7138 14.7397C54.2921 13.1975 54.5642 12.3368 54.5642 12.1934H55.9589C55.9589 12.3368 56.2311 13.1617 56.7414 14.7038C57.2176 16.246 57.4897 17.0708 57.4897 17.2143ZM55.7889 15.0266C55.3806 13.6996 55.1765 12.9824 55.1765 12.8748H55.1085C55.1085 12.9824 54.9044 13.6996 54.4622 15.0266H55.7889Z" fill="#F9F9FA"/>
<path d="M62.1842 17.2145H61.2657C61.2657 17.1069 60.9255 16.569 60.2452 15.5289C59.5308 14.453 59.1566 13.7357 59.0546 13.3412H58.9865C59.0546 13.915 59.0886 14.4171 59.0886 14.8834C59.0886 15.5289 59.0886 16.282 59.1566 17.2145H58.2722C58.3062 16.4255 58.3402 15.5289 58.3402 14.5964C58.3402 13.664 58.3062 12.875 58.2722 12.1936H59.3607C59.3607 12.337 59.6669 12.875 60.2792 13.8074C60.9255 14.8116 61.2997 15.493 61.3678 15.8517H61.4358C61.3678 15.2779 61.3337 14.7758 61.3337 14.3095C61.3337 13.6281 61.2997 12.9109 61.2657 12.1577H62.1842C62.1502 12.8033 62.1161 13.5923 62.1161 14.5606C62.1502 15.5648 62.1502 16.4255 62.1842 17.2145Z" fill="#F9F9FA"/>
<path d="M67.4909 14.5245C67.4909 15.2418 67.2528 15.8873 66.8105 16.4253C66.3683 16.9632 65.756 17.2501 64.9396 17.2501C64.5654 17.2501 64.0891 17.2501 63.4428 17.2143C63.4768 16.4253 63.4768 15.5646 63.4768 14.5962C63.4768 13.6638 63.4768 12.8748 63.4428 12.1934H64.0891C64.1912 12.1934 64.3613 12.1934 64.5654 12.1934C64.7695 12.1934 64.9056 12.1934 64.9736 12.1934C65.8581 12.1934 66.5044 12.4085 66.8786 12.8748C67.2868 13.341 67.4909 13.879 67.4909 14.5245ZM66.4704 14.7038C66.4704 14.2017 66.3343 13.8072 66.0622 13.4486C65.79 13.1258 65.3818 12.9465 64.8035 12.9465C64.7015 12.9465 64.5654 12.9465 64.3613 12.9824C64.3953 13.4845 64.3953 14.0224 64.3953 14.5962C64.3953 15.2059 64.3953 15.8156 64.4293 16.4253C64.5994 16.4611 64.7355 16.4611 64.9056 16.4611C65.4158 16.4611 65.824 16.2818 66.0622 15.9591C66.3683 15.6004 66.4704 15.2059 66.4704 14.7038Z" fill="#F9F9FA"/>
<path d="M72.3554 17.2143H71.2668C70.9947 16.3177 70.7566 15.7439 70.6205 15.5287C70.4844 15.3135 70.2123 15.2059 69.9061 15.2059C69.7701 15.2059 69.634 15.2059 69.4979 15.2059C69.4979 15.8515 69.4979 16.5329 69.5319 17.2143H68.5114C68.5454 16.4253 68.5454 15.5646 68.5454 14.5962C68.5454 13.6638 68.5454 12.8748 68.5114 12.1934H69.1578C69.2258 12.1934 69.3959 12.1934 69.6 12.1934C69.8381 12.1934 70.0422 12.1934 70.2463 12.1934C71.3689 12.1934 71.9132 12.5879 71.9132 13.4127C71.9132 14.0583 71.607 14.4886 70.9607 14.7397V14.8114C71.1988 14.8831 71.4369 15.0983 71.607 15.4211C71.8111 15.708 72.0492 16.3177 72.3554 17.2143ZM70.9947 13.6638C70.9947 13.1617 70.6885 12.9106 70.0422 12.9106C69.8041 12.9106 69.6 12.9106 69.4299 12.9824C69.4639 13.3769 69.4639 13.9148 69.4639 14.5245C69.6 14.5245 69.702 14.5245 69.8041 14.5245C70.6205 14.5245 70.9947 14.2376 70.9947 13.6638Z" fill="#F9F9FA"/>
<path d="M77.5942 14.6323C77.5942 15.4213 77.356 16.0668 76.9138 16.6048C76.4716 17.1069 75.8933 17.3938 75.2129 17.3938C74.5666 17.3938 74.0223 17.1427 73.6141 16.6765C73.1719 16.2103 72.9678 15.6006 72.9678 14.8474C72.9678 14.0584 73.2059 13.4129 73.6481 12.8749C74.0904 12.3728 74.6687 12.0859 75.349 12.0859C75.9953 12.0859 76.5396 12.337 76.9478 12.8032C77.3901 13.2694 77.5942 13.8791 77.5942 14.6323ZM76.6077 14.7398C76.6077 14.2019 76.4716 13.7715 76.2335 13.4488C75.9613 13.126 75.6552 12.9467 75.281 12.9467C74.9408 12.9467 74.6346 13.126 74.3625 13.4488C74.1244 13.7715 73.9883 14.2019 73.9883 14.7398C73.9883 15.2778 74.1244 15.7082 74.3965 16.0309C74.6687 16.3537 74.9748 16.533 75.349 16.533C75.6892 16.533 75.9953 16.3537 76.2675 16.0309C76.4716 15.6723 76.6077 15.2419 76.6077 14.7398Z" fill="#F9F9FA"/>
<path d="M79.6692 17.2143H78.6487C78.6827 16.4253 78.6827 15.5287 78.6827 14.5962C78.6827 13.6638 78.6827 12.8748 78.6487 12.1934H79.6692C79.6352 12.8389 79.6352 13.6279 79.6352 14.5962C79.6352 15.5646 79.6352 16.4253 79.6692 17.2143Z" fill="#F9F9FA"/>
<path d="M84.976 14.5245C84.976 15.2418 84.7378 15.8873 84.2956 16.4253C83.8534 16.9632 83.2411 17.2501 82.4246 17.2501C82.0504 17.2501 81.5742 17.2501 80.9279 17.2143C80.9619 16.4253 80.9619 15.5646 80.9619 14.5962C80.9619 13.6638 80.9619 12.8748 80.9279 12.1934H81.5742C81.6762 12.1934 81.8463 12.1934 82.0504 12.1934C82.2545 12.1934 82.3906 12.1934 82.4586 12.1934C83.3431 12.1934 83.9894 12.4085 84.3636 12.8748C84.7718 13.341 84.976 13.879 84.976 14.5245ZM83.9554 14.7038C83.9554 14.2017 83.8194 13.8072 83.5472 13.4486C83.2751 13.1258 82.8669 12.9465 82.2886 12.9465C82.1865 12.9465 82.0504 12.9465 81.8463 12.9824C81.8804 13.4845 81.8803 14.0224 81.8803 14.5962C81.8803 15.2059 81.8804 15.8156 81.9144 16.4253C82.0845 16.4611 82.2205 16.4611 82.3906 16.4611C82.9009 16.4611 83.3091 16.2818 83.5472 15.9591C83.8534 15.6004 83.9554 15.2059 83.9554 14.7038Z" fill="#F9F9FA"/>
<path d="M91.9836 17.2143H90.827C90.827 17.035 90.7249 16.5687 90.4868 15.7797H88.7859C88.5478 16.5687 88.4457 17.035 88.4457 17.2143H87.3572C87.3572 17.1067 87.6293 16.2818 88.2076 14.7397C88.7859 13.1975 89.0581 12.3368 89.0581 12.1934H90.4528C90.4528 12.3368 90.7249 13.1617 91.2352 14.7038C91.7454 16.246 91.9836 17.0708 91.9836 17.2143ZM90.3167 15.0266C89.9085 13.6996 89.7044 12.9824 89.7044 12.8748H89.6364C89.6364 12.9824 89.4323 13.6996 88.99 15.0266H90.3167Z" fill="#F9F9FA"/>
<path d="M96.2698 13.5203C96.2698 14.13 96.0657 14.5962 95.6235 14.8831C95.1812 15.17 94.671 15.3135 94.0246 15.3135C93.9226 15.3135 93.8205 15.3135 93.7865 15.3135C93.7865 15.7797 93.7865 16.4253 93.8205 17.2143H92.8C92.834 16.4611 92.834 15.6004 92.834 14.5962C92.834 13.6638 92.834 12.8748 92.8 12.1934H93.4463C93.5484 12.1934 93.7185 12.1934 93.9566 12.1934C94.2287 12.1934 94.4328 12.1934 94.6369 12.1934C95.1132 12.1934 95.4874 12.301 95.7935 12.5161C96.0997 12.7313 96.2698 13.0541 96.2698 13.5203ZM95.3173 13.7355C95.3173 13.1975 94.9771 12.9106 94.2628 12.9106C94.0927 12.9106 93.9226 12.9465 93.7185 12.9824C93.7525 13.4845 93.7525 14.0224 93.7525 14.6321C93.8205 14.6321 93.8886 14.6321 93.9566 14.6321C94.8751 14.6321 95.3173 14.3093 95.3173 13.7355Z" fill="#F9F9FA"/>
<path d="M100.624 13.5203C100.624 14.13 100.42 14.5962 99.9777 14.8831C99.5355 15.17 99.0252 15.3135 98.3789 15.3135C98.2768 15.3135 98.1748 15.3135 98.1407 15.3135C98.1407 15.7797 98.1407 16.4253 98.1748 17.2143H97.1542C97.1883 16.4611 97.1883 15.6004 97.1883 14.5962C97.1883 13.6638 97.1883 12.8748 97.1542 12.1934H97.8006C97.9026 12.1934 98.0727 12.1934 98.3108 12.1934C98.583 12.1934 98.7871 12.1934 98.9912 12.1934C99.4674 12.1934 99.8416 12.301 100.148 12.5161C100.488 12.7313 100.624 13.0541 100.624 13.5203ZM99.7056 13.7355C99.7056 13.1975 99.3654 12.9106 98.651 12.9106C98.4809 12.9106 98.3108 12.9465 98.1067 12.9824C98.1407 13.4845 98.1407 14.0224 98.1407 14.6321C98.2088 14.6321 98.2768 14.6321 98.3449 14.6321C99.2633 14.6321 99.7056 14.3093 99.7056 13.7355Z" fill="#F9F9FA"/>
<path d="M107.802 14.6323C107.802 15.4213 107.564 16.0668 107.121 16.6048C106.679 17.1427 106.101 17.3938 105.421 17.3938C104.774 17.3938 104.23 17.1427 103.822 16.6765C103.379 16.2103 103.175 15.6006 103.175 14.8474C103.175 14.0584 103.413 13.4129 103.856 12.8749C104.298 12.3728 104.876 12.0859 105.557 12.0859C106.203 12.0859 106.747 12.337 107.155 12.8032C107.598 13.2694 107.802 13.8791 107.802 14.6323ZM106.781 14.7398C106.781 14.2019 106.645 13.7715 106.407 13.4488C106.135 13.126 105.829 12.9467 105.455 12.9467C105.114 12.9467 104.808 13.126 104.536 13.4488C104.298 13.7715 104.162 14.2019 104.162 14.7398C104.162 15.2778 104.298 15.7082 104.57 16.0309C104.842 16.3537 105.148 16.533 105.523 16.533C105.863 16.533 106.169 16.3537 106.441 16.0309C106.679 15.6723 106.781 15.2419 106.781 14.7398Z" fill="#F9F9FA"/>
<path d="M112.768 17.2145H111.85C111.85 17.1069 111.51 16.569 110.829 15.5289C110.115 14.453 109.741 13.7357 109.639 13.3412H109.571C109.639 13.915 109.673 14.4171 109.673 14.8834C109.673 15.5289 109.673 16.282 109.741 17.2145H108.856C108.89 16.4255 108.924 15.5289 108.924 14.5964C108.924 13.664 108.89 12.875 108.856 12.1936H109.945C109.945 12.337 110.251 12.875 110.863 13.8074C111.51 14.8116 111.884 15.493 111.952 15.8517H112.02C111.952 15.2779 111.918 14.7758 111.918 14.3095C111.918 13.6281 111.918 12.9109 111.85 12.1577H112.768C112.734 12.8033 112.7 13.5923 112.7 14.5606C112.7 15.5648 112.734 16.4255 112.768 17.2145Z" fill="#F9F9FA"/>
<defs>
<linearGradient id="paint0_linear_40_555" x1="22.7685" y1="11.5523" x2="22.7685" y2="52.1868" gradientUnits="userSpaceOnUse">
<stop stop-color="#257CB0"/>
<stop offset="0.2863" stop-color="#4A93B5"/>
<stop offset="0.767" stop-color="#78BCBB"/>
<stop offset="1" stop-color="#89CFBD"/>
</linearGradient>
<linearGradient id="paint1_linear_40_555" x1="13.0508" y1="21.6371" x2="37.7066" y2="21.6371" gradientUnits="userSpaceOnUse">
<stop stop-color="#52C1AD"/>
<stop offset="1" stop-color="#DEE89A"/>
</linearGradient>
<linearGradient id="paint2_linear_40_555" x1="25.3785" y1="31.8697" x2="25.3785" y2="52.3344" gradientUnits="userSpaceOnUse">
<stop stop-color="#EC413D"/>
<stop offset="0.1668" stop-color="#DA4452"/>
<stop offset="0.5748" stop-color="#B0487A"/>
<stop offset="0.8619" stop-color="#954A92"/>
<stop offset="1" stop-color="#8A4A9D"/>
</linearGradient>
<linearGradient id="paint3_linear_40_555" x1="39.5792" y1="26.4127" x2="39.5792" y2="37.3266" gradientUnits="userSpaceOnUse">
<stop stop-color="#F58879"/>
<stop offset="0.1194" stop-color="#F69079"/>
<stop offset="0.7128" stop-color="#FCB877"/>
<stop offset="1" stop-color="#FEC874"/>
</linearGradient>
</defs>
</svg>
