<svg width="141" height="141" viewBox="0 0 141 141" fill="none" xmlns="http://www.w3.org/2000/svg">
<circle cx="70.5" cy="70.5" r="70.5" fill="#FFD235"/>
<path d="M62.25 41C59.03 41 56.4167 43.6432 56.4167 46.9V52.8H62.25V48.375C62.25 47.5608 62.9033 46.9 63.7083 46.9H78.2917C79.0967 46.9 79.75 47.5608 79.75 48.375V52.8H85.5833V46.9C85.5833 43.6432 82.97 41 79.75 41H62.25ZM97.25 55.75H44.75C39.9171 55.75 36 59.7119 36 64.6V91.15C36 96.0382 39.9171 100 44.75 100H97.25C102.083 100 106 96.0382 106 91.15V64.6C106 59.7119 102.083 55.75 97.25 55.75ZM95.7917 88.2H46.2083C45.4033 88.2 44.75 87.5392 44.75 86.725C44.75 85.9108 45.4033 85.25 46.2083 85.25H95.7917C96.5967 85.25 97.25 85.9108 97.25 86.725C97.25 87.5392 96.5967 88.2 95.7917 88.2ZM95.7917 79.35H46.2083C45.4033 79.35 44.75 78.6892 44.75 77.875C44.75 77.0608 45.4033 76.4 46.2083 76.4H95.7917C96.5967 76.4 97.25 77.0608 97.25 77.875C97.25 78.6892 96.5967 79.35 95.7917 79.35ZM95.7917 70.5H46.2083C45.4033 70.5 44.75 69.8392 44.75 69.025C44.75 68.2108 45.4033 67.55 46.2083 67.55H95.7917C96.5967 67.55 97.25 68.2108 97.25 69.025C97.25 69.8392 96.5967 70.5 95.7917 70.5Z" fill="#263248"/>
</svg>
