<svg width="141" height="141" viewBox="0 0 141 141" fill="none" xmlns="http://www.w3.org/2000/svg">
<circle cx="70.5" cy="70.5" r="70.5" fill="#FFD235"/>
<path d="M71.7015 53.9671L72.2726 55.2512C73.1515 55.0986 74.2009 55.0465 75.4135 55.1582L75.9067 57.3059C74.9537 57.1868 73.9413 57.0751 73.0476 57.2612L72.7065 57.3468C70.9858 57.8047 71.5346 59.4499 73.0699 59.8482C75.599 60.4363 78.6101 60.6224 79.8005 63.2801C80.7573 65.4315 79.6485 66.9018 77.7943 67.609L78.3654 68.8969L77.1602 69.15L76.615 67.9254C75.3616 68.1524 73.9265 68.1227 72.61 67.7728L72.2392 65.599C73.3295 65.7702 74.6793 65.9228 75.7176 65.7107L76.4074 65.4873C77.6423 64.8732 77.264 63.321 75.4284 62.9525C74.0674 62.6436 70.4518 62.8743 69.1057 59.8593C68.3455 58.1546 68.9091 56.3753 71.0896 55.5639L70.4926 54.2202L71.7015 53.9671ZM85.8673 59.9747C83.2492 53.8405 75.9253 49.7349 69.5173 50.8069C63.1093 51.8789 60.0351 57.7191 62.6569 63.857C65.4233 70.3299 73.3665 74.4765 79.9043 72.8424C85.6968 71.3982 88.3593 65.8186 85.8673 59.9747ZM100.886 39L114.852 69.6451C94.7043 85.364 67.9264 69.5036 48.2834 86.2499L34.3178 55.6048C52.6518 37.8163 77.976 53.9298 100.886 39ZM115 83.7188C89.572 98.3806 69.0204 78.4183 42.6875 106L26 68.9118L31.1991 63.4699L45.3167 94.7403L45.3093 94.7701C72.9178 73.9554 86.8241 90.3964 112.464 77.793C113.554 80.2013 114.559 82.7436 115 83.7188Z" fill="#263248"/>
</svg>
