<svg width="141" height="141" viewBox="0 0 141 141" fill="none" xmlns="http://www.w3.org/2000/svg">
<circle cx="70.5" cy="70.5" r="70.5" fill="#FFD235"/>
<path d="M86.8947 55.2483C86.1247 54.3816 86.1667 53.0192 86.96 52.1805L95.0543 43.6278C95.451 43.211 95.9573 43 96.4613 43C96.9723 43 97.4833 43.216 97.8707 43.6532L86.8947 55.2483ZM73.583 77.0355C73.4197 77.2108 73.3333 77.4472 73.3333 77.6836C73.3333 78.1767 73.702 78.5833 74.1593 78.5833C74.367 78.5833 74.5747 78.4995 74.7357 78.3292L76.096 76.888L74.9457 75.5943L73.583 77.0355ZM85.0723 60.3825L80.4197 65.2955C77.9183 67.9363 76.642 70.4958 75.4637 74.0668L77.5193 76.3772C80.8303 75.2055 83.2173 73.8965 85.7187 71.2532L90.3713 66.3376L85.0723 60.3825ZM98.643 45.2392L86.6567 57.9018L92.6907 64.6906L104.679 52.0331C105.559 51.1028 106 49.8701 106 48.6349C106 44.5072 101.408 42.3163 98.643 45.2392ZM71 76.0417H61.6667V78.5833H71V76.0417ZM92 72.6104V77.4218C92 87.8604 78 83.6667 78 83.6667C78 83.6667 81.542 98.9167 71.8447 98.9167H54.6667V48.0833H84.1343L88.9457 43H50V104H73.7743C81.1547 104 96.6667 85.6415 96.6667 79.5644V67.6516L92 72.6104Z" fill="#263248"/>
</svg>
