<svg width="100" height="22" viewBox="0 0 100 22" fill="none" xmlns="http://www.w3.org/2000/svg">
<path d="M8.27496 3.87803C5.55123 3.47173 4.04669 4.54723 4.04669 6.33974V7.17624H7.80804V10.6179H4.04669V21.8509H0V6.29194C0 2.61132 2.90532 -0.0415852 8.27496 0.579817V3.87803Z" fill="white"/>
<path d="M19.4545 14.1301C19.4545 12.6483 19.247 11.5728 18.8579 10.9036C18.4428 10.2344 17.6905 9.8998 16.601 9.8998C16.2119 9.8998 15.771 9.9237 15.304 9.9715C14.8371 10.0193 14.4739 10.0671 14.2405 10.1149V21.6108H10.6348V7.84439C11.3352 7.65319 12.2171 7.48589 13.3326 7.31859C14.448 7.15129 15.6153 7.07959 16.8604 7.07959C17.924 7.07959 18.806 7.19909 19.4804 7.46199C20.1549 7.72489 20.7256 8.05949 21.1665 8.46579C21.3741 8.32239 21.6594 8.15509 21.9966 8.01169C22.3339 7.84439 22.697 7.70099 23.1121 7.55759C23.5271 7.41419 23.9681 7.31859 24.435 7.22299C24.9019 7.12739 25.3689 7.07959 25.8358 7.07959C27.0291 7.07959 28.0407 7.24689 28.8189 7.55759C29.5972 7.86829 30.2197 8.32239 30.6607 8.896C31.1017 9.4696 31.413 10.1627 31.5686 10.9753C31.7243 11.7879 31.828 12.6722 31.828 13.6282V21.6347H28.2483V14.1301C28.2483 12.6483 28.0407 11.5728 27.6516 10.9036C27.2625 10.2344 26.5103 9.8998 25.3689 9.8998C24.7982 9.8998 24.2534 9.9954 23.7346 10.1627C23.2158 10.33 22.8267 10.4973 22.5933 10.6646C22.7489 11.1187 22.8527 11.5967 22.9305 12.0986C22.9824 12.6005 23.0083 13.1502 23.0083 13.7238V21.5869H19.4545V14.1301Z" fill="white"/>
<path d="M40.1808 7.00787C41.374 7.00787 42.3598 7.15127 43.1639 7.41418C43.9681 7.67708 44.6166 8.05948 45.1094 8.56138C45.6023 9.03938 45.9395 9.63688 46.147 10.3539C46.3546 11.047 46.4583 11.8118 46.4583 12.6483V21.2762C45.9136 21.3957 45.0835 21.5152 43.9681 21.6825C42.8526 21.8259 41.6075 21.9215 40.2067 21.9215C39.2729 21.9215 38.4428 21.8498 37.6645 21.6825C36.8863 21.5152 36.2378 21.2523 35.6931 20.8938C35.1483 20.5353 34.7333 20.0573 34.422 19.4837C34.1107 18.9101 33.9551 18.1931 33.9551 17.3327C33.9551 16.5201 34.1367 15.827 34.4739 15.2534C34.8111 14.6798 35.278 14.2257 35.8747 13.8672C36.4713 13.5087 37.1457 13.2697 37.924 13.1024C38.7022 12.959 39.5063 12.8634 40.3623 12.8634C40.7515 12.8634 41.1665 12.8873 41.6075 12.9351C42.0485 12.9829 42.5154 13.0546 43.0083 13.1741V12.6244C43.0083 12.242 42.9564 11.8835 42.8526 11.525C42.7489 11.1904 42.5932 10.8797 42.3338 10.6168C42.0744 10.3539 41.7631 10.1388 41.3481 9.99538C40.933 9.85198 40.4402 9.78028 39.8176 9.78028C38.9875 9.78028 38.2352 9.82808 37.5348 9.94758C36.8345 10.0671 36.2897 10.1866 35.8487 10.33L35.4077 7.65318C35.8487 7.50978 36.5232 7.36638 37.3792 7.22297C38.2612 7.10347 39.195 7.00787 40.1808 7.00787ZM40.4661 19.2925C41.5815 19.2925 42.4116 19.2447 42.9823 19.1252V15.4924C42.7748 15.4446 42.4895 15.3729 42.1263 15.3251C41.7631 15.2773 41.3481 15.2534 40.8812 15.2534C40.492 15.2534 40.077 15.2773 39.6879 15.3251C39.2729 15.3729 38.9097 15.4924 38.5984 15.6358C38.2612 15.7792 38.0018 15.9943 37.8202 16.2572C37.6127 16.5201 37.5348 16.8547 37.5348 17.261C37.5348 18.0497 37.7943 18.5755 38.339 18.8862C38.8319 19.1491 39.5582 19.2925 40.4661 19.2925Z" fill="white"/>
<path d="M58.4442 10.3539C58.1588 10.2583 57.7438 10.1627 57.225 10.0671C56.7062 9.9715 56.0836 9.9237 55.4092 9.9237C55.02 9.9237 54.605 9.9715 54.164 10.0432C53.723 10.1149 53.4117 10.1866 53.2302 10.2344V21.6347H49.6504V8.05949C50.3508 7.82049 51.2068 7.60539 52.2444 7.39029C53.282 7.17519 54.4234 7.07959 55.6945 7.07959C55.928 7.07959 56.2133 7.10349 56.5246 7.12739C56.8359 7.15129 57.1472 7.19909 57.4844 7.24689C57.7957 7.29469 58.1069 7.34249 58.3923 7.41419C58.6776 7.48589 58.9111 7.53369 59.0927 7.58149L58.4442 10.3539Z" fill="white"/>
<path d="M63.9436 12.9351C64.3846 12.5049 64.8775 12.0269 65.3963 11.525C65.9151 11.0231 66.4079 10.5212 66.9008 10.0193C67.3937 9.51739 67.8606 9.03939 68.3016 8.58529C68.7426 8.13118 69.1317 7.72488 69.443 7.36638H73.6712C72.6855 8.39408 71.6479 9.44569 70.5584 10.5212C69.4689 11.6206 68.3794 12.6722 67.264 13.6999C67.8606 14.154 68.4832 14.7037 69.1317 15.349C69.7802 15.9943 70.4027 16.6874 71.0253 17.4044C71.6479 18.1214 72.2186 18.8623 72.7374 19.5793C73.2562 20.2963 73.7231 20.9894 74.0603 21.5869H69.9099C69.5467 21.0133 69.1576 20.4397 68.6907 19.8183C68.2238 19.1969 67.7309 18.5994 67.1861 18.0258C66.6414 17.4522 66.1226 16.9025 65.5519 16.3767C65.0072 15.8509 64.4624 15.4207 63.9177 15.0622V21.5869H60.3379V1.03286L63.9436 0.483154V12.9351Z" fill="white"/>
<path d="M73.9297 14.5603C73.9297 13.3175 74.1372 12.2181 74.5263 11.2621C74.9154 10.3061 75.4602 9.54128 76.1346 8.89598C76.8091 8.27458 77.5613 7.79658 78.4433 7.48588C79.2993 7.17517 80.2073 7.00787 81.1152 7.00787C83.2423 7.00787 84.9025 7.60538 86.0957 8.82428C87.289 10.0432 87.8856 11.8596 87.8856 14.2735C87.8856 14.4647 87.8856 14.6559 87.8597 14.8949C87.8597 15.11 87.8337 15.3251 87.8078 15.5163H77.6132C77.717 16.6635 78.158 17.5478 78.9362 18.1692C79.7144 18.7906 80.8558 19.1013 82.3084 19.1013C83.1644 19.1013 83.9686 19.0296 84.6949 18.8862C85.4213 18.7428 85.9919 18.5755 86.407 18.4321L86.8739 21.1328C86.6664 21.2284 86.407 21.324 86.0698 21.4196C85.7325 21.5152 85.3434 21.6108 84.8765 21.6825C84.4355 21.7542 83.9427 21.8259 83.4498 21.8976C82.931 21.9454 82.4122 21.9693 81.8934 21.9693C80.5445 21.9693 79.3512 21.7781 78.3395 21.4196C77.3279 21.0372 76.4978 20.5353 75.8493 19.8661C75.2008 19.1969 74.7079 18.4321 74.3966 17.5239C74.0853 16.6157 73.9297 15.6358 73.9297 14.5603ZM84.3058 13.1024C84.3058 12.6483 84.228 12.2181 84.0983 11.8118C83.9686 11.4055 83.7611 11.047 83.5017 10.7602C83.2423 10.4495 82.905 10.2344 82.5159 10.0432C82.1268 9.87588 81.6858 9.78028 81.1411 9.78028C80.5964 9.78028 80.1035 9.87588 79.6884 10.0671C79.2734 10.2583 78.9362 10.4973 78.6508 10.808C78.3655 11.1187 78.132 11.4772 77.9764 11.8596C77.8207 12.2659 77.717 12.6722 77.6392 13.0785H84.3058V13.1024Z" fill="white"/>
<path d="M90.2988 3.61406L93.8786 3.06436V7.36638H99.378V10.1149H93.8786V15.9226C93.8786 17.0698 94.0861 17.8824 94.4752 18.3843C94.8643 18.8862 95.5388 19.1252 96.4726 19.1252C97.1211 19.1252 97.6918 19.0535 98.2106 18.934C98.7035 18.8145 99.1185 18.695 99.4039 18.5755L100.001 21.1806C99.5855 21.3479 99.0407 21.5152 98.3663 21.6825C97.6918 21.8498 96.9136 21.9454 96.0057 21.9454C94.8903 21.9454 93.9824 21.802 93.2301 21.5391C92.5038 21.2762 91.9071 20.8699 91.4661 20.3441C91.0252 19.8183 90.7398 19.1969 90.5582 18.456C90.3766 17.7151 90.2988 16.8786 90.2988 15.9465V3.61406Z" fill="white"/>
</svg>
